# xmcd
# 
# Track frame offsets:
#     150
#     27018
#     53597
#     76775
#     100211
#     129125
#     154487
# 
# Disc length: 2380
# 
# Revision: 0
# Processed by: cddbd v1.5.2PL0 Copyright (c) Steve Scherf et al.
# Submitted via: fre:ac v1.0.17
# 
DISCID=45094a07
DTITLE=Herta Müller - Eine Fliege kommt durch einen halben Wald
DYEAR=2010
DGENRE=Audiobook
TTITLE0=1
TTITLE1=2
TTITLE2=3
TTITLE3=4
TTITLE4=5
TTITLE5=6
TTITLE6=7
EXTD=Monolog, gesprochen von Angela Winkler
EXTT0=
EXTT1=
EXTT2=
EXTT3=
EXTT4=
EXTT5=
EXTT6=
PLAYORDER=
